<svg width="375" height="812" viewBox="0 0 375 812" fill="none" xmlns="http://www.w3.org/2000/svg">
  <rect width="375" height="812" fill="#E5E5E5" />
  <g id="Mobile" clip-path="url(#clip1)">
    <rect width="375" height="812" fill="#202024" />
    <circle id="degrad&#195;&#170;1" cx="278" cy="99" r="300" transform="rotate(-180 278 99)"
      fill="url(#gradient0)" />
    <circle id="degrad&#195;&#170;2" cx="98" cy="99" r="300" transform="rotate(-180 98 99)"
      fill="url(#gradient1)" />
    <g id="Frame 1" clip-path="url(#clip2)">
      <g id="mask">
        <mask id="mask0_0:1" style="mask-type:alpha" maskUnits="userSpaceOnUse" x="0" y="0" width="375" height="812">
          <rect id="retangle" width="375" height="812" fill="#202024" />
        </mask>
        <g mask="url(#mask0_0:1)">
          <g id="vetor">
            <path id="Vector"
              d="M375 168.101V-310.699L187.478 -418.486L-0.0446777 -310.699V168.101L187.478 275.894L375 168.101Z"
              fill="url(#gradient2)" />
            <g id="vector" style="mix-blend-mode:luminosity" opacity="0.4">
              <path id="Vector_2"
                d="M1.83662 61.3931V168.797L95.1275 222.505L188.418 168.797V61.3931L95.1275 7.68578L1.83662 61.3931Z"
                fill="url(#gradient3)" />
              <path id="Vector_3"
                d="M1.83662 -46.0166V61.3877L95.1275 115.095L188.418 61.3877V-46.0166L95.1275 -99.7239L1.83662 -46.0166Z"
                fill="url(#gradient4)" />
              <path id="Vector_4"
                d="M281.709 -99.6961V7.70821L188.418 61.4155L95.1274 7.70821V-99.6961L188.418 -153.403L281.709 -99.6961Z"
                fill="url(#gradient5)" />
              <path id="Vector_5"
                d="M188.418 168.797V61.3927L281.709 7.68539L375 61.3927V168.797L281.709 222.504L188.418 168.797Z"
                fill="url(#gradient6)" />
              <path id="Vector_6"
                d="M375 -46.0166V61.3877L281.709 115.095L188.418 61.3877V-46.0166L281.709 -99.7239L375 -46.0166Z"
                fill="url(#gradient7)" />
              <path id="Vector_7"
                d="M281.709 222.527V115.123L188.418 61.4155L95.1274 115.123L95.1274 222.527L188.418 276.234L281.709 222.527Z"
                fill="url(#gradient8)" />
            </g>
          </g>
        </g>
      </g>
    </g>
  </g>
  <defs>
    <radialGradient id="gradient0" cx="0" cy="0" r="1" gradientUnits="userSpaceOnUse"
      gradientTransform="translate(278 99) rotate(90) scale(300)">
      <stop stop-color="#FFC323" />
      <stop offset="1" stop-color="#121214" stop-opacity="0" />
    </radialGradient>
    <radialGradient id="gradient1" cx="0" cy="0" r="1" gradientUnits="userSpaceOnUse"
      gradientTransform="translate(98 99) rotate(90) scale(300)">
      <stop stop-color="#FF3D6E" />
      <stop offset="1" stop-color="#121214" stop-opacity="0" />
    </radialGradient>
    <linearGradient id="gradient2" x1="-67.9497" y1="58.9385" x2="436.115" y2="232.357"
      gradientUnits="userSpaceOnUse">
      <stop stop-color="#FF008E" />
      <stop offset="1" stop-color="#FFCD1E" />
    </linearGradient>
    <linearGradient id="gradient3" x1="95.1275" y1="217.565" x2="2.23833" y2="59.047"
      gradientUnits="userSpaceOnUse">
      <stop stop-color="#8257E5" />
      <stop offset="1" stop-color="#FF008E" stop-opacity="0" />
    </linearGradient>
    <linearGradient id="gradient4" x1="95.1275" y1="110.155" x2="2.23831" y2="-48.3627"
      gradientUnits="userSpaceOnUse">
      <stop stop-color="#8257E5" />
      <stop offset="1" stop-color="#FF008E" stop-opacity="0" />
    </linearGradient>
    <linearGradient id="gradient5" x1="95.1275" y1="-105.732" x2="281.421" y2="6.68569"
      gradientUnits="userSpaceOnUse">
      <stop stop-color="#FF008E" stop-opacity="0" />
      <stop offset="1" stop-color="#FFCD1E" />
    </linearGradient>
    <linearGradient id="gradient6" x1="375" y1="174.833" x2="188.706" y2="62.4152"
      gradientUnits="userSpaceOnUse">
      <stop stop-color="#FF008E" stop-opacity="0" />
      <stop offset="1" stop-color="#FFCD1E" />
    </linearGradient>
    <linearGradient id="gradient7" x1="281.709" y1="110.155" x2="374.598" y2="-48.3627"
      gradientUnits="userSpaceOnUse">
      <stop stop-color="#8257E5" />
      <stop offset="1" stop-color="#FF008E" stop-opacity="0" />
    </linearGradient>
    <linearGradient id="gradient8" x1="188.418" y1="66.3552" x2="281.307" y2="224.873"
      gradientUnits="userSpaceOnUse">
      <stop stop-color="#8257E5" />
      <stop offset="1" stop-color="#FF008E" stop-opacity="0" />
    </linearGradient>
    <clipPath id="clip1">
      <rect width="375" height="812" fill="white" />
    </clipPath>
    <clipPath id="clip2">
      <rect width="375" height="812" fill="white" />
    </clipPath>
  </defs>
</svg>